# xmcd
#
# Track frame offsets:
#	150
#	24817
#	45911
#	68462
#	81676
#	103967
#	122251
#	137036
#	152101
#	172015
#	185006
#	198310
#
# Disc length: 2877 seconds
#
# Revision: 1
# Processed by: cddbd v1.5.2PL0 Copyright (c) Steve Scherf et al.
# Submitted via: audiograbber 1.83.01
#
DISCID=9b0b3b0c
DTITLE=Various Artist - MRE42
DYEAR=2007
DGENRE=Karaoke
TTITLE0=Roberta Flack - Killing Me Softly With His Song
TTITLE1=Pointer Sisters - Slowhand
TTITLE2=Whitney Houston - I'm Every Woman
TTITLE3=Temptations - Ain't Too Proud To Beg
TTITLE4=Whitney Houston - One Moment In Time
TTITLE5=Jacksons - Blame It On The Boogie
TTITLE6=Sam and Dave - Soul Man
TTITLE7=Sam Cooke - You Send Me
TTITLE8=Real Thing - You To Me Are Everything
TTITLE9=Sam Cooke - Cupid
TTITLE10=Sam Cooke - Twistin' The Night Away
TTITLE11=Diana Ross - Them From 'Mahogany' (Do You Know Where You're Going To)
EXTD=
EXTT0=
EXTT1=
EXTT2=
EXTT3=
EXTT4=
EXTT5=
EXTT6=
EXTT7=
EXTT8=
EXTT9=
EXTT10=
EXTT11=
PLAYORDER=
